<svg xmlns="http://www.w3.org/2000/svg" viewBox="0 0 96 96" fill="none">
<defs>
<linearGradient id="b" x1="10" y1="10" x2="86" y2="86" gradientUnits="userSpaceOnUse"><stop stop-color="#FFFEFB"></stop><stop offset="1" stop-color="#FFE8D1"></stop></linearGradient>
<linearGradient id="a" x1="20" y1="20" x2="80" y2="80" gradientUnits="userSpaceOnUse"><stop stop-color="#FDE047"></stop><stop offset="1" stop-color="#F59E0B"></stop></linearGradient>
<filter id="s" x="-30%" y="-30%" width="160%" height="160%"><feDropShadow dx="0" dy="3" stdDeviation="3" flood-color="#5B21B6" flood-opacity="0.35"></feDropShadow></filter>
</defs>
<g filter="url(#s)">
<path d="M24 36 V32 A6 6 0 0 1 30 26 H40 A6 6 0 0 1 46 32 V36 H68 A0 0 0 0 1 68 36 V36 H10 Z" fill="url(#b)"></path>
<rect x="10" y="36" width="58" height="42" rx="14" fill="url(#b)"></rect>
</g>
<circle cx="39" cy="57" r="13.5" fill="url(#a)" filter="url(#s)"></circle>
<circle cx="39" cy="57" r="6.5" fill="#FFFDF6"></circle>
<circle cx="43.5" cy="51.5" r="2.5" fill="#FFFFFF" opacity="0.85"></circle>
<circle cx="60" cy="45" r="3.5" fill="#D97706"></circle>
<path class="dash" d="M50 33 l6 -6 M44 26 l4 -4" stroke="#D97706" stroke-width="3" stroke-linecap="round" opacity="0.7"></path>
<g class="tile">
<rect x="60" y="13" width="22" height="22" rx="8" fill="url(#a)" filter="url(#s)" transform="rotate(10 71 24)"></rect>
<g transform="rotate(10 71 24)"><path d="M66 31 L71 17 L76 31 M68.2 26.5 H73.8" stroke="#FFFDF6" stroke-width="3.5" stroke-linecap="round" stroke-linejoin="round"></path></g>
</g>
</svg>