<svg xmlns="http://www.w3.org/2000/svg" viewBox="0 0 96 96" fill="none">
<defs>
<linearGradient id="b" x1="10" y1="10" x2="86" y2="86" gradientUnits="userSpaceOnUse"><stop stop-color="#FFFEFB"></stop><stop offset="1" stop-color="#FFE8D1"></stop></linearGradient>
<linearGradient id="a" x1="20" y1="20" x2="80" y2="80" gradientUnits="userSpaceOnUse"><stop stop-color="#FDE047"></stop><stop offset="1" stop-color="#F59E0B"></stop></linearGradient>
<filter id="s" x="-30%" y="-30%" width="160%" height="160%"><feDropShadow dx="0" dy="3" stdDeviation="3" flood-color="#5B21B6" flood-opacity="0.35"></feDropShadow></filter>
</defs>
<g class="loop">
<g filter="url(#s)">
<path d="M22.4 43.5 A26 26 0 0 1 70.5 35" stroke="url(#b)" stroke-width="10" stroke-linecap="round"></path>
<path d="M73.6 52.5 A26 26 0 0 1 25.5 61" stroke="url(#b)" stroke-width="10" stroke-linecap="round"></path>
</g>
<path d="M63.6 39 L77.4 31 L76.5 45.4 Z" fill="url(#a)" stroke="url(#a)" stroke-width="4" stroke-linejoin="round"></path>
<path d="M32.4 57 L18.6 65 L19.5 50.6 Z" fill="url(#a)" stroke="url(#a)" stroke-width="4" stroke-linejoin="round"></path>
</g>
<path class="spark" d="M48 37 C49.6 42.9 53.1 46.4 59 48 C53.1 49.6 49.6 53.1 48 59 C46.4 53.1 42.9 49.6 37 48 C42.9 46.4 46.4 42.9 48 37 Z" fill="url(#a)" filter="url(#s)"></path>
</svg>